<svg width="111" height="214" viewBox="0 0 111 214" fill="none" xmlns="http://www.w3.org/2000/svg">
<path d="M-50.3243 158.062V56.3798C-50.3236 55.6068 -50.0162 54.8657 -49.4696 54.3191C-48.923 53.7725 -48.1819 53.4651 -47.4089 53.4644H54.2731C54.6559 53.4644 55.0351 53.5397 55.3888 53.6862C55.7425 53.8327 56.064 54.0475 56.3347 54.3182C56.6054 54.5889 56.8202 54.9103 56.9667 55.2641C57.1132 55.6178 57.1885 55.9969 57.1885 56.3798V158.062C57.1878 158.835 56.8804 159.576 56.3338 160.122C55.7872 160.669 55.0461 160.976 54.273 160.977H-47.4089" stroke="#EA5B0C" stroke-width="1.771" stroke-miterlimit="10"/>
<path d="M16.2328 37.1309C16.2327 37.4638 16.1339 37.7891 15.9489 38.0657C15.7639 38.3424 15.5011 38.558 15.1936 38.6853C14.886 38.8127 14.5477 38.8459 14.2213 38.781C13.8949 38.716 13.5951 38.5557 13.3597 38.3204C13.1244 38.085 12.9641 37.7852 12.8992 37.4588C12.8342 37.1324 12.8675 36.7941 12.9948 36.4866C13.1221 36.1791 13.3377 35.9162 13.6144 35.7312C13.891 35.5463 14.2164 35.4474 14.5492 35.4473C14.7703 35.4472 14.9893 35.4907 15.1936 35.5753C15.3979 35.6599 15.5835 35.7839 15.7399 35.9403C15.8962 36.0966 16.0202 36.2823 16.1048 36.4866C16.1894 36.6909 16.2329 36.9098 16.2328 37.1309Z" fill="white"/>
<path d="M42.1107 38.321C42.768 37.6638 42.768 36.5982 42.1107 35.9409C41.4535 35.2837 40.3878 35.2837 39.7306 35.9409C39.0733 36.5982 39.0733 37.6638 39.7306 38.321C40.3878 38.9783 41.4535 38.9783 42.1107 38.321Z" fill="white"/>
<path d="M15.7391 61.8868C16.3964 61.2295 16.3964 60.1639 15.7391 59.5066C15.0819 58.8494 14.0163 58.8494 13.359 59.5066C12.7018 60.1639 12.7018 61.2295 13.359 61.8868C14.0163 62.544 15.0819 62.544 15.7391 61.8868Z" fill="white"/>
<path d="M42.1114 61.8868C42.7687 61.2295 42.7687 60.1639 42.1114 59.5067C41.4542 58.8494 40.3886 58.8494 39.7313 59.5067C39.0741 60.1639 39.0741 61.2295 39.7313 61.8868C40.3886 62.544 41.4542 62.544 42.1114 61.8868Z" fill="white"/>
<path d="M15.7391 85.4532C16.3964 84.796 16.3964 83.7304 15.7391 83.0731C15.0819 82.4159 14.0163 82.4159 13.359 83.0731C12.7018 83.7304 12.7018 84.796 13.359 85.4532C14.0163 86.1105 15.0819 86.1105 15.7391 85.4532Z" fill="white"/>
<path d="M42.6049 84.2625C42.6047 84.5953 42.506 84.9206 42.321 85.1973C42.136 85.4739 41.8732 85.6896 41.5656 85.8169C41.2581 85.9442 40.9198 85.9774 40.5934 85.9125C40.267 85.8475 39.9671 85.6873 39.7318 85.4519C39.4965 85.2166 39.3362 84.9167 39.2713 84.5903C39.2063 84.2639 39.2396 83.9256 39.3669 83.6181C39.4942 83.3106 39.7098 83.0477 39.9865 82.8627C40.2631 82.6778 40.5884 82.579 40.9213 82.5789C41.1424 82.5788 41.3614 82.6223 41.5657 82.7068C41.77 82.7914 41.9556 82.9154 42.1119 83.0718C42.2683 83.2282 42.3923 83.4138 42.4769 83.6181C42.5615 83.8224 42.605 84.0414 42.6049 84.2625Z" fill="white"/>
<path d="M16.2328 107.829C16.2327 108.162 16.1339 108.487 15.9489 108.764C15.7639 109.04 15.5011 109.256 15.1936 109.383C14.8861 109.511 14.5477 109.544 14.2213 109.479C13.8949 109.414 13.5951 109.254 13.3597 109.018C13.1244 108.783 12.9641 108.483 12.8992 108.157C12.8342 107.83 12.8675 107.492 12.9948 107.185C13.1221 106.877 13.3377 106.614 13.6144 106.429C13.891 106.244 14.2164 106.145 14.5492 106.145C14.7703 106.145 14.9893 106.189 15.1936 106.273C15.3979 106.358 15.5835 106.482 15.7399 106.638C15.8962 106.795 16.0202 106.98 16.1048 107.185C16.1894 107.389 16.2329 107.608 16.2328 107.829Z" fill="white"/>
<path d="M42.6051 107.829C42.605 108.162 42.5062 108.487 42.3212 108.764C42.1362 109.04 41.8734 109.256 41.5659 109.383C41.2584 109.511 40.92 109.544 40.5936 109.479C40.2672 109.414 39.9674 109.254 39.732 109.018C39.4967 108.783 39.3364 108.483 39.2715 108.157C39.2065 107.83 39.2398 107.492 39.3671 107.185C39.4944 106.877 39.71 106.614 39.9867 106.429C40.2634 106.244 40.5887 106.145 40.9215 106.145C41.1426 106.145 41.3616 106.189 41.5659 106.273C41.7702 106.358 41.9558 106.482 42.1122 106.638C42.2685 106.795 42.3925 106.98 42.4771 107.185C42.5617 107.389 42.6052 107.608 42.6051 107.829Z" fill="white"/>
<path d="M15.7401 132.585C16.3974 131.928 16.3974 130.863 15.7401 130.205C15.0829 129.548 14.0172 129.548 13.36 130.205C12.7027 130.863 12.7027 131.928 13.36 132.585C14.0172 133.243 15.0829 133.243 15.7401 132.585Z" fill="white"/>
<path d="M42.6058 131.395C42.6057 131.727 42.5069 132.053 42.322 132.329C42.137 132.606 41.8741 132.822 41.5666 132.949C41.2591 133.076 40.9208 133.11 40.5944 133.045C40.268 132.98 39.9681 132.819 39.7328 132.584C39.4974 132.349 39.3372 132.049 39.2722 131.723C39.2073 131.396 39.2405 131.058 39.3678 130.75C39.4951 130.443 39.7108 130.18 39.9874 129.995C40.2641 129.81 40.5894 129.711 40.9222 129.711C41.1433 129.711 41.3623 129.754 41.5666 129.839C41.7709 129.924 41.9565 130.048 42.1129 130.204C42.2693 130.36 42.3933 130.546 42.4779 130.75C42.5624 130.955 42.6059 131.174 42.6058 131.395Z" fill="white"/>
<path d="M15.7391 156.151C16.3964 155.494 16.3964 154.428 15.7391 153.771C15.0819 153.114 14.0163 153.114 13.359 153.771C12.7018 154.428 12.7018 155.494 13.359 156.151C14.0163 156.808 15.0819 156.808 15.7391 156.151Z" fill="white"/>
<path d="M42.6014 154.964C42.6013 155.297 42.5025 155.622 42.3175 155.899C42.1326 156.175 41.8697 156.391 41.5622 156.518C41.2547 156.646 40.9164 156.679 40.59 156.614C40.2635 156.549 39.9637 156.389 39.7284 156.153C39.4931 155.918 39.3328 155.618 39.2678 155.292C39.2029 154.965 39.2361 154.627 39.3634 154.32C39.4908 154.012 39.7064 153.749 39.983 153.564C40.2597 153.379 40.585 153.28 40.9178 153.28C41.1389 153.28 41.3579 153.324 41.5622 153.408C41.7665 153.493 41.9521 153.617 42.1085 153.773C42.2649 153.93 42.3889 154.115 42.4735 154.32C42.558 154.524 42.6015 154.743 42.6014 154.964Z" fill="white"/>
</svg>
