<svg width="63" height="63" viewBox="0 0 63 63" fill="none" xmlns="http://www.w3.org/2000/svg">
<path d="M7.91998e-05 31.3702C-0.0390584 13.9539 14.4321 -0.458488 32.2886 0.0111631C48.7069 0.441677 63.1291 14.1496 62.7573 32.1138C62.405 48.9136 48.4622 62.7683 31.3004 62.7292C14.2168 62.6999 -0.0194896 48.7571 7.91998e-05 31.3702ZM31.2906 61.467C47.9828 61.4964 61.0058 47.8471 61.3581 32.0747C61.7397 15.0107 47.9339 1.33206 31.5254 1.19508C14.7648 1.05809 1.07636 14.5508 1.0568 31.2821C1.03723 48.1798 14.7745 61.5844 31.2906 61.467Z" fill="#EA5B0C"/>
<path d="M31.2907 61.4672C14.7746 61.5846 1.03734 48.18 1.05691 31.2823C1.07647 14.551 14.7649 1.05827 31.5255 1.19525C47.934 1.33223 61.7398 15.0108 61.3582 32.0846C61.006 47.8473 47.9829 61.4965 31.2907 61.4672ZM31.2907 1.91929C15.4596 1.73339 1.80052 14.7075 1.8103 31.3508C1.8103 47.5538 14.9899 60.6844 31.2222 60.7236C47.6209 60.7529 60.9179 47.2211 60.6635 30.842C60.4189 14.8543 47.2099 1.80188 31.2907 1.91929Z" fill="white"/>
<path d="M30.8602 45.7045C30.8602 46.0274 30.8602 46.3014 30.8602 46.5753C30.8602 47.27 30.8602 47.9647 30.8602 48.6594C30.8602 49.8727 31.2908 50.3227 32.5236 50.3912C32.6997 50.401 32.8758 50.4108 33.0715 50.4206C33.0715 50.6065 33.0715 50.7533 33.0715 50.9392C30.9874 50.9392 28.9034 50.9392 26.8095 50.9392C26.7214 50.6163 26.7214 50.4304 27.152 50.3815C27.9151 50.3032 28.3163 49.7944 28.3163 49.0214C28.3163 46.1252 28.3163 43.2291 28.3163 40.3329C28.3163 40.2644 28.3163 40.1959 28.3065 40.1274C28.238 39.0511 28.013 38.8456 26.9269 38.8359C26.7997 38.8359 26.6627 38.8652 26.5551 38.8163C26.4573 38.7674 26.3594 38.6402 26.3399 38.5325C26.3301 38.4738 26.467 38.3271 26.5453 38.3173C26.7801 38.2781 27.015 38.2781 27.2498 38.2781C29.3143 38.239 31.3788 38.1803 33.4433 38.1803C35.0773 38.1803 36.4765 39.3446 36.8679 40.9395C37.5626 43.7476 34.9697 46.0567 32.9443 45.8317C32.2888 45.7436 31.6039 45.7436 30.8602 45.7045ZM30.87 41.7712C30.87 42.642 30.8602 43.5226 30.8798 44.3934C30.8798 44.5597 31.007 44.8533 31.1244 44.8728C32.504 45.137 33.776 44.8043 34.1772 43.1019C34.3533 42.3485 34.3826 41.5266 34.2946 40.7634C34.138 39.4229 33.3553 38.8261 31.9952 38.8163C31.7604 38.8163 31.5256 38.8261 31.2908 38.8261C30.9777 38.8261 30.8505 38.9435 30.8602 39.2761C30.8798 40.1078 30.87 40.9395 30.87 41.7712Z" fill="white"/>
<path d="M25.3907 41.5657C25.0679 41.6733 24.9504 41.6048 24.9015 41.3504C24.8232 40.9297 24.7254 40.5089 24.5786 40.1078C24.4123 39.6283 24.0503 39.3935 23.5219 39.4033C22.6511 39.4131 21.7705 39.4131 20.8997 39.4033C20.5866 39.4033 20.4496 39.5109 20.4496 39.8338C20.4594 42.9159 20.4594 45.9882 20.4496 49.0703C20.4496 49.6476 20.7627 50.0292 21.2617 50.2053C21.7118 50.3716 22.1912 50.4303 22.7098 50.5575C22.7098 50.626 22.7098 50.763 22.7098 50.9391C20.3616 50.9391 18.0231 50.9391 15.6357 50.9391C15.6259 50.8021 15.6161 50.6652 15.6063 50.5282C16.0466 50.4499 16.4674 50.4108 16.8587 50.3031C17.6317 50.0781 17.9057 49.6769 17.9057 48.8746C17.9057 45.9099 17.9057 42.9355 17.9057 39.9708C17.9057 39.4424 17.8763 39.4131 17.3382 39.4131C16.5065 39.4131 15.6748 39.4229 14.8431 39.4131C14.3344 39.4033 13.9821 39.6381 13.806 40.0882C13.6592 40.4894 13.5907 40.9101 13.4831 41.3308C13.4048 41.6342 13.4048 41.6342 12.9939 41.6048C13.0232 41.233 13.0526 40.871 13.0917 40.5089C13.17 39.7751 13.2483 39.0511 13.3364 38.3172C13.3853 37.9356 13.532 37.8965 13.8647 38.0726C14.0995 38.1998 14.3735 38.2977 14.6377 38.2977C17.6611 38.3172 20.6844 38.3172 23.7078 38.2977C23.9818 38.2977 24.2655 38.1803 24.5101 38.0531C24.7743 37.9259 24.9602 37.9259 24.9994 38.2292C25.1657 39.325 25.2733 40.4405 25.3907 41.5657Z" fill="white"/>
<path d="M49.2449 47.7103C49.2058 47.8179 49.1764 47.9451 49.1275 48.043C48.6872 48.904 48.2469 49.765 47.8164 50.6358C47.7088 50.8609 47.562 50.9587 47.2978 50.9587C44.3136 50.9489 41.3391 50.9489 38.3549 50.9489C38.2473 50.9489 38.1396 50.9294 38.0222 50.9098C38.0222 50.7043 38.0222 50.538 38.0222 50.3423C38.3745 50.2934 38.7169 50.264 39.0594 50.1955C39.7932 50.0585 40.165 49.6182 40.1748 48.8746C40.1748 45.9491 40.1748 43.0236 40.1748 40.098C40.1748 39.5599 39.9302 39.237 39.3333 39.0609C38.9517 38.9532 38.5506 38.9043 38.1298 38.826C38.1298 38.6793 38.1298 38.5227 38.1298 38.3173C40.4585 38.3173 42.7872 38.3173 45.155 38.3173C45.155 38.4151 45.155 38.5129 45.155 38.601C45.155 38.6793 45.1453 38.7576 45.1355 38.826C44.5386 38.9043 43.9614 38.963 43.3939 39.0609C42.8655 39.1489 42.7481 39.3055 42.7383 39.8436C42.7383 42.9649 42.7383 46.0861 42.7383 49.1975C42.7383 49.628 42.9144 49.7944 43.3449 49.7944C44.2451 49.8042 45.1453 49.765 46.0454 49.8042C46.7793 49.8433 47.337 49.54 47.7871 49.0116C48.1002 48.6594 48.3545 48.2582 48.6579 47.906C48.7851 47.7592 48.971 47.6809 49.1373 47.5733C49.1764 47.632 49.2156 47.6712 49.2449 47.7103Z" fill="white"/>
<path d="M22.3869 50.1368C21.565 50.2249 20.6648 49.7454 20.6844 48.8452C20.7529 45.9295 20.7137 43.004 20.704 40.0784C20.704 39.7164 20.8312 39.6381 21.1638 39.6381C21.4378 39.6381 21.5161 39.7457 21.5161 40.0099C21.5063 40.7535 21.5161 41.5069 21.5161 42.2506C21.5161 44.3444 21.5259 46.4285 21.5063 48.5224C21.4965 49.2073 21.4867 49.8433 22.3869 50.1368Z" fill="#EA5B0C"/>
<path d="M44.4019 39.1685C43.805 39.2565 43.7854 39.6675 43.7854 40.1567C43.805 43.1214 43.7952 46.086 43.7952 49.0507C43.7952 49.1975 43.7952 49.354 43.7952 49.491C43.1397 49.6769 43.0027 49.5693 43.0027 48.9724C43.0027 45.9882 43.0027 43.0137 43.0027 40.0295C43.0027 39.4424 43.0614 39.3641 43.6289 39.2663C43.8833 39.2174 44.1475 39.1978 44.4019 39.1685Z" fill="#EA5B0C"/>
<path d="M34.3335 38.0042C36.535 38.1607 38.2179 39.8338 38.0027 42.3484C37.8559 44.1585 35.9675 45.9882 34.0596 46.0078C35.8795 45.2544 37.1025 44.0705 37.2101 42.0745C37.308 40.0393 36.3002 38.7282 34.3335 38.0042Z" fill="#EA5B0C"/>
<path d="M32.5821 50.1857C32.2397 50.0781 31.8777 50.0292 31.5744 49.8628C31.3787 49.7552 31.1634 49.4714 31.1536 49.266C31.1047 48.268 31.1341 47.27 31.1243 46.2719C31.1243 45.9882 31.3004 45.9686 31.5059 45.9784C31.7309 45.9784 31.907 46.0176 31.907 46.3111C31.8972 47.1428 31.9364 47.9744 31.8972 48.8061C31.8679 49.4127 31.9853 49.8824 32.6506 50.0781C32.6311 50.1074 32.6115 50.1466 32.5821 50.1857Z" fill="#EA5B0C"/>
<path d="M26.4179 41.3602C26.4277 41.6244 26.3592 41.7907 26.0559 41.8005C25.7722 41.8005 25.6352 41.7124 25.6156 41.3993C25.5275 40.3622 25.4199 39.3348 25.2927 38.3075C25.2634 38.0335 25.2927 37.7889 25.5765 37.7987C25.7428 37.8085 26.0168 38.0433 26.0461 38.1998C26.1929 39.2468 26.3005 40.3035 26.4179 41.3602Z" fill="#EA5B0C"/>
<path d="M15.0095 39.6675C14.8529 40.2448 14.667 40.8221 14.53 41.4189C14.4517 41.7516 14.2561 41.8396 13.9527 41.7907C13.6103 41.732 13.7081 41.4776 13.7473 41.2721C13.7962 40.9786 13.8647 40.6753 13.9527 40.3915C14.168 39.7556 14.4126 39.6088 15.0095 39.6675Z" fill="#EA5B0C"/>
<path d="M45.3997 39.0609C45.3997 38.8652 45.4095 38.6793 45.3997 38.4934C45.3899 38.2781 45.3997 38.102 45.6835 38.1118C45.9379 38.1118 46.1433 38.1313 46.1825 38.464C46.2412 39.0413 46.0455 39.2076 45.3997 39.0609Z" fill="#EA5B0C"/>
<path d="M33.3552 51.2033C33.3552 50.8217 33.3552 50.5576 33.3552 50.176C33.6194 50.2542 33.9032 50.2738 34.0793 50.4206C34.1771 50.4988 34.1771 50.8902 34.0695 50.9783C33.9032 51.1153 33.6194 51.1251 33.3552 51.2033Z" fill="#EA5B0C"/>
<path d="M23.0032 50.2836C23.7174 50.313 23.8251 50.3717 23.7859 50.7631C23.737 51.311 23.3261 51.0859 23.0032 51.1349C23.0032 50.8413 23.0032 50.5772 23.0032 50.2836Z" fill="#EA5B0C"/>
<path d="M44.8616 15.7837C45.2138 15.4804 45.566 15.1771 45.9281 14.864C45.9574 14.8934 45.977 14.9227 46.0063 14.9521C45.6541 15.2554 45.3019 15.5685 44.9496 15.8718C44.9105 15.8425 44.8909 15.8131 44.8616 15.7837Z" fill="black"/>
<path d="M14.2168 37.7987C14.4125 37.8183 14.618 37.8378 14.8137 37.8574C14.8137 37.9063 14.8039 37.9553 14.8039 38.0042C14.6082 38.0042 14.4125 38.0042 14.207 38.0042C14.2168 37.9357 14.2168 37.8672 14.2168 37.7987Z" fill="#EA5B0C"/>
<path d="M28.2478 26.3999C28.6979 25.7737 29.1382 25.1475 29.5883 24.5213C30.3417 23.4646 31.0951 22.3981 31.8582 21.3511C32.0344 21.1163 32.0344 20.9597 31.8093 20.7543C31.5451 20.5194 31.3103 20.2357 31.0559 19.9813C31.0951 19.9422 31.1244 19.903 31.1636 19.8639C32.2105 20.6858 33.2574 21.5175 34.2946 22.3393C34.275 22.3687 34.2554 22.3981 34.2359 22.4274C33.6097 22.0067 32.9932 21.5859 32.3181 21.1359C30.9874 22.9264 29.6665 24.7072 28.3456 26.4879C28.3261 26.4586 28.2869 26.4292 28.2478 26.3999Z" fill="black"/>
<path d="M40.3313 13.592C39.5388 13.4844 38.7756 13.3866 38.0222 13.2887C38.032 13.2398 38.032 13.2007 38.0418 13.1517C38.7952 13.2789 39.5486 13.3963 40.302 13.5235C40.302 13.5235 40.3118 13.5431 40.3313 13.592Z" fill="black"/>
<path d="M31.1536 39.0902C31.4178 39.0902 31.6232 39.0902 31.8776 39.0902C31.8776 40.9492 31.8776 42.8083 31.8776 44.6575C31.1438 44.7456 31.134 44.726 31.134 44.0215C31.134 42.6126 31.134 41.1939 31.134 39.7849C31.1242 39.5794 31.1438 39.3544 31.1536 39.0902Z" fill="#EA5B0C"/>
<path d="M1.92754 31.4975C1.89818 15.0695 15.43 1.48876 32.1516 1.92905C47.5229 2.33021 61.0156 15.2652 60.6633 32.202C60.3307 48.043 47.2783 61.1149 31.222 61.0758C15.2343 61.0464 1.90797 47.8962 1.92754 31.4975ZM31.2123 59.8821C46.8282 59.9114 59.0195 47.0352 59.3522 32.1629C59.7044 16.0675 46.7793 3.16189 31.4373 3.03469C15.7529 2.91728 2.93533 15.637 2.91576 31.4193C2.89619 47.3581 15.7529 59.9897 31.2123 59.8821Z" fill="black"/>
<path d="M54.3622 14.9912C63.2366 27.7305 60.1448 45.3816 47.8653 54.4615C34.7347 64.1677 17.1423 60.6453 8.35591 48.6496C-1.19367 35.607 2.03519 17.2808 14.9702 8.17151C27.8562 -0.967124 45.5269 2.30087 54.3622 14.9912ZM15.4496 9.00319C3.05277 17.7994 0.10766 35.0591 8.84513 47.4657C17.3967 59.5984 34.6662 62.6902 47.1217 53.444C58.638 44.912 62.0429 28.0534 53.4229 15.6468C44.9887 3.29888 27.9736 0.118945 15.4496 9.00319Z" fill="#736F6E"/>
<path d="M53.3349 15.5098C61.9158 27.7501 58.9316 44.7163 47.0631 53.444C34.3727 62.7783 17.3576 59.3831 8.87456 47.8571C-0.361922 35.3232 2.74952 17.7113 15.2638 8.95426C27.7193 0.167865 44.8029 3.30866 53.3349 15.5098ZM15.7236 9.7468C3.73774 18.2103 0.890482 34.7949 9.33443 46.7123C17.6022 58.3753 34.2847 61.34 46.3391 52.4557C57.4639 44.2564 60.7613 28.0534 52.4249 16.136C44.2745 4.26753 27.827 1.2148 15.7236 9.7468Z" fill="#DADADA"/>
<path d="M47.8655 51.0761C48.2764 50.2738 48.6874 49.4813 49.0885 48.6789C49.2353 48.3854 49.3723 48.0821 49.5093 47.7788C49.6267 47.5146 49.8224 47.4265 50.0768 47.5146C50.3605 47.6124 50.3214 47.8277 50.2039 48.0527C49.7441 48.9333 49.3136 49.8335 48.8537 50.7141C48.5895 51.1837 48.4428 51.2327 47.8655 51.0761Z" fill="#EA5B0C"/>
<path d="M21.8292 22.3589C21.9858 22.4372 22.1619 22.4861 22.3087 22.5839C23.6589 23.5037 25.0092 24.4234 26.4279 25.392C28.6 20.3824 31.7408 16.1066 35.8405 12.5451C35.8307 12.4962 35.8112 12.4473 35.8014 12.3984C35.1262 12.4375 34.4022 12.3494 33.7956 12.5647C33.0128 12.8387 32.3964 12.8191 31.7995 12.2516C31.7311 12.1831 31.643 12.144 31.4571 12.0168C31.7115 11.9678 31.8583 11.9189 32.0148 11.9091C33.4825 11.8309 34.9501 11.7819 36.408 11.6939C36.6526 11.6841 36.9266 11.596 37.1125 11.4493C38.3942 10.4806 39.6564 9.49239 40.9284 8.51395C40.948 8.5433 40.9773 8.57266 40.9969 8.59222C39.813 9.6098 38.6193 10.6176 37.3669 11.6939C39.0204 11.9483 40.5272 12.1733 42.083 12.4081C42.083 12.0657 42.0634 11.7037 42.0927 11.3514C42.1025 11.2438 42.2199 11.146 42.2884 11.0481C42.3667 11.146 42.4939 11.234 42.5037 11.3319C42.5233 11.7232 42.4939 12.1048 42.5233 12.4962C42.533 12.6528 42.6113 12.868 42.7287 12.9561C43.3451 13.3964 43.7072 14.0128 44.0105 14.6683C44.7345 16.2338 45.2727 17.8581 45.6738 19.5312C45.7912 20.0106 45.9282 20.4901 46.0456 20.9793C46.0848 21.1358 46.0848 21.3022 46.1141 21.537C45.5564 21.0869 45.5662 20.4803 45.3901 19.9421C44.9987 18.7582 44.578 17.5841 44.167 16.41C44.1573 16.3806 44.1083 16.361 44.0594 16.3121C43.5506 16.8209 43.032 17.3199 42.533 17.8287C42.4646 17.8972 42.4352 18.0342 42.4352 18.132C42.4254 19.1887 42.4352 20.2357 42.4254 21.2924C42.4254 21.5468 42.5233 21.6251 42.7777 21.6251C43.9322 21.6055 45.077 21.6153 46.2315 21.6055C46.5838 21.6055 47.0143 20.901 46.848 20.5781C46.6327 20.1574 46.4077 19.7562 46.2413 19.2768C46.3294 19.3649 46.4468 19.4529 46.5153 19.5605C46.7795 20.0008 47.0241 20.4411 47.2785 20.8912C47.4155 21.1358 47.5818 21.1554 47.8166 20.9989C48.5211 20.5292 49.2354 20.0791 49.9496 19.6193C50.0572 19.5508 50.1747 19.4823 50.341 19.4921C49.7735 19.8834 49.1962 20.2846 48.6287 20.676C48.4037 20.8325 48.1786 21.0086 47.934 21.126C47.5231 21.3217 47.5329 21.5957 47.7188 21.9382C48.4722 23.2982 48.8929 24.7658 49.0886 26.3118C49.1277 26.6347 49.2256 26.7814 49.5974 26.7814C50.9183 26.7814 52.2294 26.8304 53.5503 26.8597C53.697 26.8597 53.834 26.938 53.9808 26.9771C53.971 27.026 53.9612 27.0848 53.9514 27.1337C53.7949 27.1435 53.6383 27.1728 53.4818 27.163C52.1902 27.1532 50.8987 27.1435 49.617 27.1043C49.2158 27.0945 49.1571 27.2413 49.1962 27.5935C49.3136 28.709 49.4017 29.8244 49.4898 30.9496C49.4995 31.1257 49.4506 31.3018 49.4017 31.4682C49.0005 30.3234 48.7168 29.1786 48.7853 27.9653C48.8342 27.1141 48.7755 27.1141 47.9242 27.1141C46.1239 27.1141 44.3138 27.0945 42.5135 27.1141C42.3178 27.1141 42.0438 27.2413 41.9362 27.3979C41.2219 28.4546 40.537 29.5309 39.8521 30.5974C39.7543 30.7441 39.676 30.9105 39.5977 31.0768C39.2357 31.8595 39.3531 32.564 39.9695 33.1902C39.9989 33.2196 40.0674 33.2294 40.175 33.2685C40.1261 33.0239 40.0869 32.8282 40.0576 32.6325C39.7836 30.7735 40.5468 29.3449 42.0047 28.2882C43.3451 27.3098 44.8226 27.4468 46.2805 28.0534C47.7579 28.66 48.5798 29.8048 48.7461 31.3801C48.7951 31.8302 48.9614 31.9085 49.3723 31.8987C51.0063 31.8498 52.6403 31.8302 54.2841 31.8106C54.4602 31.8106 54.6364 31.8106 54.8125 31.8106C54.8125 31.8498 54.8125 31.8987 54.8223 31.9378C54.1373 31.9867 53.4524 32.0357 52.7773 32.0748C51.5738 32.1433 50.3703 32.1922 49.1669 32.2803C49.0201 32.2901 48.7853 32.4466 48.7657 32.564C48.5504 33.7088 47.934 34.5992 47.0828 35.3624C47.0437 35.4015 47.0045 35.4406 46.8773 35.5874C50.3508 35.5874 53.7166 35.5874 57.0825 35.5874C57.0825 35.6363 57.0825 35.695 57.0825 35.744C52.9828 36.2919 48.8342 35.9299 44.715 36.1451C44.6758 36.3506 44.6465 36.4876 44.6171 36.6245C44.5878 36.6343 44.5682 36.6343 44.5388 36.6441C44.4899 36.5071 44.4508 36.3604 44.3725 36.1353C43.1201 36.1158 41.8286 36.0766 40.5468 36.0766C32.641 36.0766 24.7352 36.0864 16.8294 36.0864C15.4889 36.0864 14.1387 36.0375 12.8276 35.6657C12.7591 35.6461 12.7004 35.6168 12.671 35.5972C14.6573 35.4993 16.6533 35.3721 18.6591 35.3232C19.8919 35.2939 21.1248 35.3624 22.3576 35.4113C22.6805 35.4211 23.0034 35.558 23.3262 35.6265C23.5024 35.6657 23.6883 35.7048 23.9916 35.7733C23.8742 35.6363 23.8448 35.5874 23.8057 35.5678C21.6238 34.3839 20.8704 31.6247 22.0836 29.4526C22.6609 28.4252 23.5122 27.7794 24.5591 27.3294C24.7939 27.2315 25.0679 27.1924 25.3223 27.1826C25.5864 27.1728 25.743 27.0848 25.8017 26.8304C25.8115 26.7912 25.8311 26.7521 25.8506 26.7129C26.1637 25.9302 26.1442 25.9595 25.4397 25.5192C24.5787 24.9615 23.7568 24.3451 22.9153 23.7678C22.5044 23.4841 22.0934 23.2199 21.614 22.9068C21.5553 23.4352 21.5161 23.9244 21.4574 24.4038C21.2128 26.664 20.9682 28.9242 20.7236 31.1844C20.6258 32.0748 20.5279 32.975 20.4594 33.8751C20.4398 34.2274 20.2539 34.198 20.0191 34.1882C18.1209 34.0904 16.2228 33.9828 14.3246 33.9045C11.5556 33.7871 8.77684 33.6892 6.00785 33.5914C5.88065 33.5816 5.74367 33.5718 5.61647 33.562C5.61647 33.5327 5.61647 33.4935 5.60669 33.4642C5.74367 33.4544 5.88065 33.4446 6.01763 33.4446C10.4304 33.4935 14.8334 33.5425 19.2462 33.5914C19.8528 33.6012 19.8332 33.6012 19.8919 32.9945C20.1267 30.5289 20.3616 28.0534 20.5964 25.5877C20.6845 24.7071 20.8117 23.8265 20.8801 22.9459C20.9584 21.9577 21.115 20.9891 21.2226 20.0106C21.3302 19.0028 21.4476 17.995 21.5846 16.997C21.9466 14.4922 22.3185 11.9874 22.7098 9.48261C22.7881 8.96403 22.9642 8.46503 23.0914 7.95624C23.1403 7.96602 23.1795 7.97581 23.2284 7.98559C23.2088 8.24977 23.1991 8.51395 23.1697 8.77813C22.7392 12.6723 22.2989 16.5763 21.8684 20.4705C21.8195 20.9108 21.751 21.3511 21.7412 21.7914C21.7314 21.9871 21.8292 22.173 21.8782 22.3687C21.614 22.4274 21.5063 22.6622 21.7118 22.7894C22.0836 23.0242 22.5044 23.1906 22.9055 23.3862C22.9251 23.3471 22.9447 23.3178 22.9544 23.2786C22.5533 22.9655 22.1913 22.6622 21.8292 22.3589ZM39.1868 20.6368C37.6017 20.6858 36.1243 20.7347 34.6468 20.7738C34.5392 20.7738 34.4218 20.676 34.3044 20.627C34.412 20.5683 34.5196 20.4607 34.6272 20.4607C35.9188 20.4509 37.2103 20.4216 38.4921 20.4901C39.1281 20.5194 39.5684 20.3824 39.9108 19.8345C40.0967 19.5312 40.3609 19.267 40.6153 19.0126C41.0165 18.6017 41.4568 18.2201 41.8579 17.8091C41.9362 17.7309 41.9655 17.5645 41.9655 17.4373C41.9753 16.0969 41.9655 14.7466 41.9655 13.4062C41.9655 13.1909 41.9166 13.0735 41.6818 13.0343C41.1241 12.9463 40.5664 12.8093 40.0087 12.7408C39.1966 12.6528 38.3845 12.6038 37.5723 12.5451C37.406 12.5353 37.2005 12.6723 37.0831 12.6136C36.7407 12.4277 36.5352 12.5549 36.2906 12.7995C34.3141 14.8053 32.4845 16.9285 30.8602 19.2377C29.4709 21.2239 28.3065 23.3178 27.3672 25.5388C27.24 25.8421 27.2889 26.028 27.5727 26.1259C27.9738 26.2531 28.3848 26.4292 28.7957 26.4488C30.4395 26.4977 32.0931 26.4977 33.7466 26.5173C33.9815 26.5173 34.2065 26.5173 34.4511 26.5173C34.4903 26.0672 34.5098 25.6562 34.5588 25.2453C34.6077 24.8343 34.6762 24.4234 34.7447 24.0124C34.8131 23.6211 34.9012 23.2395 34.9795 22.8481C35.048 22.8579 35.1165 22.8775 35.185 22.8872C35.0284 24.0809 34.8621 25.2746 34.7055 26.4781C35.0871 26.5857 35.1752 26.5466 35.3513 26.2726C36.1536 25.03 36.9657 23.7874 37.768 22.5448C37.9148 22.3197 38.0714 22.1143 38.2377 21.8697C37.4158 21.811 36.6526 21.7523 35.8894 21.6935C36.5058 21.6055 37.1125 21.537 37.7093 21.6251C38.5117 21.7523 38.7954 21.2337 39.1868 20.6368ZM41.0556 27.1435C40.9186 27.1239 40.8403 27.1043 40.7718 27.1043C39.1379 27.1043 37.5039 27.0945 35.8601 27.1239C35.7035 27.1239 35.4687 27.2804 35.3904 27.4272C34.8523 28.4741 34.3435 29.5309 33.8445 30.5974C33.7173 30.8713 33.551 31.204 33.6194 31.4584C33.7271 31.8693 33.5412 32.1433 33.4531 32.339C32.5236 32.2705 31.6626 32.202 30.8015 32.1531C30.733 32.1531 30.5961 32.2216 30.5863 32.2901C30.4884 32.6129 30.4199 32.9554 30.3417 33.3076C33.4042 33.3076 36.4178 33.3076 39.5194 33.3076C39.177 32.838 38.8541 32.4368 38.5899 32.0063C38.5019 31.8693 38.4823 31.5954 38.5606 31.4486C39.2455 30.2158 39.95 28.9927 40.6544 27.7697C40.7816 27.574 40.9088 27.3881 41.0556 27.1435ZM40.7523 33.562C41.3393 35.0297 43.1005 36.0277 44.3529 35.695C44.2844 34.5992 44.216 33.5033 44.1377 32.3977C43.5115 32.3488 42.9342 32.3194 42.3569 32.2509C41.7894 32.1824 41.2219 32.0846 40.6544 31.9965C40.6642 31.9574 40.6642 31.9085 40.674 31.8693C41.809 31.8693 42.944 31.8693 44.0985 31.8693C44.0203 30.6658 43.942 29.4917 43.8637 28.3176C43.9126 28.3176 43.9518 28.3078 44.0007 28.3078C44.0496 28.5035 44.1083 28.709 44.1377 28.9047C44.2649 29.7852 44.3921 30.6561 44.4899 31.5367C44.5193 31.8008 44.6073 31.8889 44.8715 31.8889C45.9282 31.8791 46.9752 31.8987 48.0319 31.8987C48.0906 31.8987 48.1591 31.8693 48.208 31.8498C48.2961 30.6561 47.7383 29.7852 46.9262 29.0319C45.3901 27.6131 43.3549 27.7012 41.7699 28.8264C40.7131 29.57 40.1261 31.7911 40.5175 33.0532C40.5957 33.2881 40.7229 33.337 40.948 33.337C41.5448 33.3272 42.1417 33.3076 42.7385 33.3272C43.1495 33.337 43.5604 33.3957 43.9811 33.4348C43.9811 33.4838 43.9811 33.5229 43.9713 33.5718C42.9146 33.562 41.8677 33.562 40.7523 33.562ZM35.909 26.5075C36.1438 26.5173 36.271 26.5368 36.408 26.5368C37.8757 26.5564 39.3433 26.576 40.811 26.6053C41.5155 26.6151 42.0927 26.0574 42.083 25.3431C42.0634 24.2668 42.0536 23.1906 42.0145 22.1143C42.0145 22.036 41.8286 21.899 41.7307 21.8892C40.9675 21.8697 40.2044 21.8599 39.451 21.8794C39.2846 21.8892 39.0694 21.9969 38.9715 22.1338C38.1105 23.3275 37.2788 24.531 36.4374 25.7247C36.2612 25.9595 36.1145 26.1944 35.909 26.5075ZM42.2884 35.7244C42.1515 35.6265 42.1025 35.5776 42.034 35.5483C41.2415 35.196 40.6055 34.6481 40.0576 33.9925C39.8423 33.7381 39.6173 33.6697 39.3042 33.6697C36.4765 33.7088 33.6488 33.7381 30.8211 33.7479C30.3515 33.7479 30.0873 33.8751 29.8231 34.2763C29.4904 34.7753 29.0208 35.1862 28.5903 35.6559C28.9034 35.6363 29.236 35.607 29.5687 35.5972C32.4257 35.5385 35.2828 35.4504 38.1398 35.4406C39.4314 35.4406 40.7523 35.3721 42.0243 35.7342C42.0732 35.7635 42.1319 35.7342 42.2884 35.7244ZM30.5374 29.2471C30.4982 29.2569 30.4493 29.2569 30.4102 29.2667C30.2634 28.6992 30.0971 28.1219 29.9894 27.5446C29.9307 27.2119 29.7937 27.1141 29.4709 27.1337C28.7175 27.1924 28.0228 26.938 27.3379 26.6738C27.2302 26.6347 27.0248 26.5857 27.015 26.6053C26.9171 26.801 26.8389 27.0065 26.8095 27.2217C26.7997 27.2707 26.9758 27.3783 27.0835 27.4076C29.0403 27.8284 30.4297 29.2373 30.5863 31.3116C30.5961 31.429 30.7233 31.6345 30.8015 31.6443C31.5549 31.6736 32.3181 31.6639 33.0617 31.6639C33.0911 31.4192 33.0617 31.1844 33.1498 30.9887C33.6488 29.8146 34.1674 28.6503 34.6762 27.4859C34.7251 27.3783 34.7642 27.2707 34.8131 27.163C33.2672 27.163 31.7702 27.163 30.2438 27.163C30.3515 27.8871 30.4493 28.572 30.5374 29.2471ZM25.743 33.2881C25.7234 32.9065 25.7039 32.6032 25.6843 32.2998C25.6647 32.0552 25.5669 31.9476 25.2929 31.9378C24.2851 31.8987 23.2773 31.8302 22.2597 31.7715C22.1521 31.7617 22.0445 31.7813 21.9466 31.7911C21.7901 33.0532 22.5533 34.6872 23.61 35.1667C25.4592 36.0081 27.514 35.8222 29.0697 34.5013C29.2752 34.3252 29.4024 34.061 29.5981 33.7773C28.3065 33.7088 27.1324 33.6501 25.8604 33.5816C25.8604 34.2078 25.8604 34.7851 25.8604 35.3624C25.8115 35.3624 25.7724 35.3526 25.7234 35.3526C25.7234 34.9025 25.7039 34.4426 25.7332 33.9925C25.7528 33.6501 25.6843 33.4642 25.2929 33.4838C25.1364 33.4935 24.9798 33.425 24.8135 33.3957C24.8233 33.3566 24.8233 33.3272 24.833 33.2881C25.1266 33.2881 25.4103 33.2881 25.743 33.2881ZM48.6287 26.6738C48.5994 26.439 48.5798 26.165 48.5309 25.9008C48.3548 24.8637 48.208 23.8168 47.7188 22.8677C47.4252 22.3002 46.848 22.1436 46.2022 22.4665C46.4859 22.8383 46.1728 22.9459 45.9184 23.1221C45.5662 23.3667 45.214 23.6113 44.9204 23.9146C44.441 24.394 44.0105 24.9224 43.5604 25.4312C43.2277 25.803 42.8951 26.1846 42.5526 26.5564C42.5624 26.5955 42.582 26.6347 42.5917 26.6738C44.5878 26.6738 46.5936 26.6738 48.6287 26.6738ZM30.0384 31.6443C30.0481 31.5367 30.0677 31.4388 30.0677 31.3508C29.9894 29.707 28.5609 28.0045 26.9563 27.6327C26.7019 27.574 26.6334 27.7012 26.5747 27.8871C26.4181 28.4154 26.2322 28.9438 26.1148 29.4819C25.9974 30.0788 25.9485 30.6854 25.88 31.2823C25.8506 31.5464 25.968 31.6443 26.242 31.6345C26.8193 31.6149 27.4063 31.6443 27.9836 31.6443C28.6685 31.6443 29.3437 31.6443 30.0384 31.6443ZM21.8488 31.6051C23.0034 31.6051 24.0405 31.6051 25.0777 31.5954C25.1461 31.5954 25.2538 31.4779 25.2831 31.3997C25.4201 31.0083 25.5669 30.6169 25.6452 30.2158C25.6745 30.0494 25.5669 29.8537 25.518 29.6776C25.4592 29.4624 25.3321 29.2569 25.3321 29.0514C25.3418 28.5622 25.4103 28.073 25.4593 27.525C25.1951 27.5446 25.0483 27.5251 24.9211 27.5642C23.8448 27.9458 22.8077 28.3861 22.4359 29.6287C22.25 30.2549 22.0641 30.8811 21.8488 31.6051ZM48.1591 32.3585C47.0241 32.3585 45.9184 32.3585 44.8128 32.3585C44.7443 32.3585 44.6269 32.3879 44.6269 32.4075C44.6171 32.6912 44.5878 32.9847 44.6367 33.2587C44.6465 33.3272 44.9009 33.3859 45.0476 33.3957C45.5075 33.4153 45.9674 33.4055 46.4272 33.4055C46.4272 33.4446 46.4272 33.474 46.4272 33.5131C45.9282 33.5131 45.4194 33.5229 44.9204 33.5131C44.6954 33.5131 44.5878 33.5914 44.5878 33.8262C44.5976 34.4622 44.5878 35.0982 44.5878 35.7244C46.2022 35.8222 48.0808 34.6383 48.1591 32.3585ZM42.0438 26.2726C42.0732 26.3118 42.1123 26.3411 42.1417 26.3803C42.2297 26.3314 42.3374 26.3118 42.3961 26.2433C42.67 25.9498 42.944 25.6562 43.1984 25.3529C43.6974 24.7463 44.1573 24.1103 44.6758 23.5134C44.8911 23.2688 45.165 23.0242 45.4586 22.9264C45.9282 22.7698 46.0554 22.4665 46.0848 21.9773C44.9204 21.9479 43.7757 21.9088 42.6309 21.899C42.5526 21.899 42.4058 22.1143 42.4058 22.2317C42.3863 22.7698 42.4058 23.308 42.4058 23.8461C42.4058 24.2962 42.4058 24.7561 42.4058 25.3138C43.0027 24.6778 43.5311 24.1201 44.0496 23.5721C44.0594 23.5819 44.0692 23.5917 44.079 23.6113C43.4136 24.4919 42.7287 25.3823 42.0438 26.2726ZM25.9485 31.9476C25.9485 32.3879 25.9485 32.8282 25.9485 33.2587C25.9778 33.2783 25.9974 33.3076 26.0267 33.3076C27.2009 33.3174 28.3848 33.337 29.5589 33.337C29.6372 33.337 29.7742 33.2783 29.7937 33.2098C29.8916 32.8771 29.9699 32.5347 30.0579 32.1531C28.6392 32.0748 27.3281 32.0161 25.9485 31.9476ZM41.9753 18.4158C41.3785 19.13 40.8599 19.766 40.2533 20.4901C40.7816 20.4901 41.173 20.4901 41.5742 20.4901C41.584 20.5292 41.5937 20.5683 41.6035 20.6075C40.7034 20.5586 39.8032 20.4901 39.4705 21.5859C40.2924 21.5859 41.1143 21.5859 41.9753 21.5859C41.9753 20.5488 41.9753 19.541 41.9753 18.4158ZM42.6113 13.3279C42.5624 13.3377 42.5135 13.3572 42.4646 13.367C42.4646 14.6977 42.4646 16.0186 42.4646 17.3884C42.5526 17.3395 42.6309 17.3003 42.6994 17.2416C43.0418 16.9579 43.3549 16.6448 43.717 16.3806C43.9616 16.2045 43.9909 16.0382 43.8637 15.7838C43.531 15.1184 43.2082 14.4433 42.8755 13.7682C42.7972 13.6214 42.6994 13.4844 42.6113 13.3279Z" fill="white"/>
</svg>
