<svg width="8" height="20" viewBox="0 0 8 20" fill="none" xmlns="http://www.w3.org/2000/svg">
<path d="M4.5991 0C3.62975 0.105251 0.104894 1.66858 0.00206244 9.72975C-0.106227 18.2215 3.62974 20.0079 4.60954 19.9886V14.3799C3.80301 14.3799 3.64075 13.5277 3.45648 11.7694C3.33455 10.606 3.29899 9.16575 3.45648 7.73423C3.56702 6.72977 3.75969 5.74931 4.60435 5.74931L4.5991 0ZM6.68891 19.9985C7.06251 19.9985 7.33046 19.7031 7.33046 19.3721L7.3331 19.3695L7.33046 14.9954C7.33046 14.6487 7.04085 14.3753 6.68891 14.3753H5.05158V19.9985C5.05158 19.9985 6.68488 20.0009 6.68622 19.9996L6.68891 19.9985ZM6.68891 5.74931C7.06251 5.74931 7.33046 5.45395 7.33046 5.12294L7.3331 5.12033L7.33046 0.620154C7.33046 0.273382 7.04085 0 6.68891 0H5.05158V5.74931C5.05158 5.74931 6.68488 5.75175 6.68622 5.75045L6.68891 5.74931Z" fill="#EA5B0C"/>
</svg>
